<?xml version="1.0" encoding="UTF-8"?>
<!-- Generator: visioncortex VTracer 0.6.12 -->
<svg version="1.1" xmlns="http://www.w3.org/2000/svg" width="497" height="134">
<path d="M0 0 C12.21 0 24.42 0 37 0 C38.887 10.691 40.696 21.321 42.188 32.062 C42.365 33.321 42.542 34.58 42.725 35.877 C43.152 38.918 43.578 41.959 44 45 C44.237 43.743 44.474 42.487 44.719 41.192 C45.598 36.535 46.48 31.877 47.363 27.22 C47.745 25.204 48.126 23.187 48.507 21.171 C49.053 18.274 49.603 15.377 50.152 12.48 C50.322 11.577 50.492 10.674 50.667 9.743 C50.827 8.903 50.987 8.062 51.152 7.196 C51.292 6.457 51.432 5.717 51.576 4.955 C52 3 52 3 53 0 C65.21 0 77.42 0 90 0 C91.306 13.23 92.61 26.46 93.912 39.69 C94.516 45.833 95.121 51.976 95.728 58.119 C96.313 64.045 96.896 69.972 97.478 75.898 C97.701 78.161 97.924 80.424 98.148 82.687 C98.461 85.852 98.772 89.017 99.082 92.183 C99.176 93.122 99.269 94.061 99.365 95.029 C99.407 95.461 99.407 95.461 99.62 97.647 C99.694 98.395 99.768 99.144 99.844 99.915 C99.995 101.938 100 103.971 100 106 C89.44 106 78.88 106 68 106 C67.34 89.83 66.68 73.66 66 57 C60.252 84.593 60.252 84.593 58.188 95 C57.827 96.815 57.827 96.815 56 106 C47.75 106 39.5 106 31 106 C28.912 94.517 27.05 83.021 25.358 71.473 C25.196 70.389 25.034 69.305 24.867 68.188 C24.724 67.212 24.581 66.236 24.433 65.23 C24 63 24 63 23 62 C22.945 63.049 22.889 64.097 22.832 65.178 C22.625 69.099 22.413 73.02 22.2 76.941 C22.109 78.633 22.019 80.324 21.93 82.016 C21.801 84.458 21.668 86.901 21.535 89.344 C21.497 90.09 21.458 90.836 21.418 91.605 C21.378 92.325 21.338 93.045 21.297 93.787 C21.264 94.409 21.231 95.031 21.196 95.671 C20.905 99.125 20.43 102.561 20 106 C9.44 106 -1.12 106 -12 106 C-11.352 93.852 -10.174 81.844 -8.75 69.766 C-8.529 67.87 -8.309 65.974 -8.089 64.079 C-7.631 60.142 -7.17 56.206 -6.707 52.27 C-6.114 47.226 -5.527 42.183 -4.942 37.139 C-4.489 33.24 -4.034 29.342 -3.578 25.444 C-3.36 23.583 -3.143 21.722 -2.927 19.861 C-2.626 17.272 -2.321 14.683 -2.016 12.095 C-1.971 11.712 -1.971 11.712 -1.748 9.778 C-1.349 6.425 -0.821 3.284 0 0 Z " fill="#9BE9DF" transform="translate(39,15)"/>
<path d="M0 0 C9.57 0 19.14 0 29 0 C32.01 7.223 34.943 14.346 37.551 21.703 C37.854 22.552 38.158 23.4 38.471 24.275 C39.421 26.932 40.367 29.591 41.312 32.25 C41.964 34.074 42.616 35.899 43.268 37.723 C44.848 42.147 46.425 46.573 48 51 C47.929 50.394 47.858 49.787 47.785 49.162 C47.12 43.101 46.865 37.149 46.902 31.055 C46.904 30.159 46.905 29.263 46.907 28.34 C46.912 25.518 46.925 22.697 46.938 19.875 C46.943 17.945 46.947 16.016 46.951 14.086 C46.961 9.391 46.981 4.695 47 0 C56.57 0 66.14 0 76 0 C76 34.98 76 69.96 76 106 C66.43 106 56.86 106 47 106 C44.464 99.66 42.006 93.368 39.766 86.93 C39.514 86.212 39.263 85.495 39.003 84.756 C38.083 82.13 37.167 79.502 36.25 76.875 C34.188 70.976 32.125 65.078 30 59 C29.67 74.51 29.34 90.02 29 106 C19.43 106 9.86 106 0 106 C0 71.02 0 36.04 0 0 Z M28 53 C29 56 29 56 29 56 Z " fill="#99E6DC" transform="translate(402,15)"/>
<path d="M0 0 C12.725 12.544 15.591 30.596 15.925 47.607 C15.845 63.84 10.932 80 -0.129 92.098 C-7.025 98.402 -15.592 101.284 -24.836 101.262 C-25.539 101.26 -26.242 101.258 -26.966 101.257 C-32.975 101.116 -37.796 99.806 -43.086 96.887 C-44.117 96.33 -45.148 95.773 -46.211 95.199 C-57.573 86.06 -63.939 73.45 -65.871 59.019 C-67.881 39.114 -66.017 18.974 -53.395 2.707 C-39.219 -12.62 -15.888 -12.565 0 0 Z M-32.008 23.793 C-35.576 30.722 -35.422 38.159 -35.398 45.762 C-35.415 46.787 -35.431 47.811 -35.447 48.867 C-35.452 56.968 -34.652 64.443 -29.711 71.074 C-27.086 72.887 -27.086 72.887 -24.523 73.012 C-20.381 71.1 -18.639 68.195 -16.898 64.074 C-13.933 52.443 -12.548 35.945 -18.074 24.914 C-19.26 23.091 -20.545 21.427 -22.086 19.887 C-26.916 19.118 -28.875 20.033 -32.008 23.793 Z " fill="#95E0D7" transform="translate(382.0859375,22.11328125)"/>
<path d="M0 0 C9.967 8.93 15.083 23.072 15.891 36.165 C16.754 56.3 15.493 74.389 2.402 90.691 C-3.431 96.989 -11.45 100.877 -19.984 101.652 C-32.683 101.777 -41.6 99.967 -51.062 90.805 C-64.597 75.653 -66.213 56.625 -65.485 37.225 C-64.44 22.002 -58.51 8.693 -47.285 -1.684 C-33.088 -12.646 -13.742 -10.124 0 0 Z M-29.473 21.754 C-34.699 29.142 -34.778 37.426 -34.723 46.191 C-34.743 47.299 -34.763 48.406 -34.783 49.547 C-34.779 56.94 -33.945 63.765 -30.285 70.316 C-26.988 73.316 -26.988 73.316 -23.785 73.316 C-20.388 71.958 -19.23 70.402 -17.285 67.316 C-12.624 54.314 -12.486 37.497 -17.785 24.691 C-19.285 22.316 -19.285 22.316 -21.285 20.316 C-24.697 19.871 -26.565 19.843 -29.473 21.754 Z " fill="#96E1D7" transform="translate(203.28515625,21.68359375)"/>
<path d="M0 0 C20.46 0 40.92 0 62 0 C62 8.91 62 17.82 62 27 C61.835 27.165 61.835 27.165 61 28 C55.72 28 50.44 28 45 28 C45 53.74 45 79.48 45 106 C35.1 106 25.2 106 15 106 C15 80.26 15 54.52 15 28 C10.38 28 5.76 28 1 28 C0.67 27.67 0.34 27.34 0 27 C0 18.09 0 9.18 0 0 Z " fill="#94DFD5" transform="translate(218,15)"/>
<path d="M0 0 C9.9 0 19.8 0 30 0 C30 34.98 30 69.96 30 106 C20.1 106 10.2 106 0 106 C0 71.02 0 36.04 0 0 Z " fill="#94DED5" transform="translate(281,15)"/>
<path d="M0 0 C9.57 0 19.14 0 29 0 C29 34.98 29 69.96 29 106 C19.43 106 9.86 106 0 106 C-2.613 99.467 -5.111 92.989 -7.383 86.344 C-7.999 84.562 -8.614 82.781 -9.23 81 C-10.185 78.231 -11.138 75.462 -12.087 72.691 C-13.014 69.99 -13.948 67.292 -14.883 64.594 C-15.024 64.177 -15.024 64.177 -15.741 62.069 C-16.009 61.3 -16.276 60.532 -16.551 59.74 C-16.783 59.064 -17.016 58.388 -17.255 57.692 C-18 56 -18 56 -20 54 C-20.125 50.375 -20.125 50.375 -20 47 C-17.127 48.436 -16.936 50.567 -15.945 53.471 C-15.69 54.244 -15.435 55.016 -15.172 55.812 C-14.9 56.614 -14.629 57.416 -14.349 58.242 C-13.476 60.826 -12.613 63.413 -11.75 66 C-10.903 68.52 -10.053 71.039 -9.204 73.558 C-8.641 75.227 -8.08 76.896 -7.52 78.565 C-5.355 85.004 -3.107 91.411 -0.79 97.797 C1 102.785 1 102.785 1 105 C9.91 105 18.82 105 28 105 C28 70.68 28 36.36 28 1 C19.42 1 10.84 1 2 1 C2.121 7.456 2.244 13.911 2.372 20.366 C2.415 22.557 2.457 24.748 2.497 26.939 C2.929 50.291 2.929 50.291 4 61 C1.971 58.971 0.992 57.67 0 55 C0.333 53.333 0.667 51.667 1 50 C0.885 48.643 0.727 47.289 0.541 45.94 C-0.055 40.992 -0.128 36.131 -0.098 31.152 C-0.096 30.255 -0.095 29.358 -0.093 28.433 C-0.088 25.601 -0.075 22.769 -0.062 19.938 C-0.057 18.003 -0.053 16.069 -0.049 14.135 C-0.039 9.423 -0.019 4.712 0 0 Z " fill="#2E4643" transform="translate(449,15)"/>
<path d="M0 0 C12.21 0 24.42 0 37 0 C38.306 13.23 39.61 26.46 40.912 39.69 C41.516 45.833 42.121 51.976 42.728 58.119 C43.313 64.045 43.896 69.972 44.478 75.898 C44.701 78.161 44.924 80.424 45.148 82.687 C45.461 85.852 45.772 89.017 46.082 92.183 C46.176 93.122 46.269 94.061 46.365 95.029 C46.45 95.893 46.534 96.757 46.62 97.647 C46.694 98.395 46.768 99.144 46.844 99.915 C46.995 101.938 47 103.971 47 106 C36.44 106 25.88 106 15 106 C14.34 89.83 13.68 73.66 13 57 C7.196 84.857 7.196 84.857 5 97 C4.67 97 4.34 97 4 97 C4.375 85.858 6.348 75.281 8.538 64.382 C9.311 60.398 9.922 56.39 10.508 52.375 C11.05 49.757 11.941 47.45 13 45 C13.33 45 13.66 45 14 45 C17.556 64.541 16.096 85.216 16 105 C25.57 105 35.14 105 45 105 C44.798 103 44.597 101 44.389 98.939 C43.713 92.23 43.039 85.521 42.366 78.811 C41.958 74.755 41.551 70.698 41.142 66.642 C38.026 35.742 38.026 35.742 36.773 21.91 C36.692 21.045 36.61 20.181 36.527 19.29 C35.985 13.123 36 7.254 36 1 C24.45 1 12.9 1 1 1 C0.67 1.66 0.34 2.32 0 3 C0 2.01 0 1.02 0 0 Z " fill="#3F5F5B" transform="translate(92,15)"/>
<path d="M0 0 C0.66 0 1.32 0 2 0 C3.395 6.641 4.546 13.275 5.473 19.996 C5.601 20.91 5.729 21.824 5.86 22.766 C6.128 24.685 6.395 26.603 6.659 28.522 C7.061 31.427 7.469 34.332 7.877 37.236 C8.138 39.115 8.399 40.993 8.66 42.871 C8.78 43.724 8.9 44.576 9.023 45.454 C9.872 51.64 10.433 57.765 11 64 C18.59 64 26.18 64 34 64 C34.33 63.01 34.66 62.02 35 61 C35 62.32 35 63.64 35 65 C26.75 65 18.5 65 10 65 C7.912 53.517 6.05 42.021 4.358 30.473 C4.196 29.389 4.034 28.305 3.867 27.188 C3.724 26.212 3.581 25.236 3.433 24.23 C3 22 3 22 2 21 C1.34 32.88 0.68 44.76 0 57 C-0.33 57 -0.66 57 -1 57 C-1.174 37.982 -0.633 19.005 0 0 Z " fill="#2B423F" transform="translate(60,56)"/>
<path d="M0 0 C2.873 1.436 3.064 3.567 4.055 6.471 C4.31 7.244 4.565 8.016 4.828 8.812 C5.1 9.614 5.371 10.416 5.651 11.242 C6.524 13.826 7.387 16.413 8.25 19 C9.097 21.52 9.947 24.039 10.796 26.558 C11.359 28.227 11.92 29.896 12.48 31.565 C14.645 38.004 16.893 44.411 19.21 50.797 C21 55.785 21 55.785 21 58 C30.24 58 39.48 58 49 58 C49 58.33 49 58.66 49 59 C39.43 59 29.86 59 20 59 C17.387 52.467 14.889 45.989 12.617 39.344 C12.001 37.562 11.386 35.781 10.77 34 C9.815 31.231 8.862 28.462 7.913 25.691 C6.986 22.99 6.052 20.292 5.117 17.594 C4.834 16.76 4.55 15.927 4.259 15.069 C3.991 14.3 3.724 13.532 3.449 12.74 C3.217 12.064 2.984 11.388 2.745 10.692 C2 9 2 9 0 7 C-0.125 3.375 -0.125 3.375 0 0 Z " fill="#2C4440" transform="translate(429,62)"/>
<path d="M0 0 C0.66 0 1.32 0 2 0 C2.365 1.581 2.717 3.165 3.062 4.75 C3.26 5.632 3.457 6.513 3.66 7.422 C3.998 9.987 3.812 11.571 3 14 C2.67 13.01 2.34 12.02 2 11 C1.34 26.18 0.68 41.36 0 57 C-0.33 57 -0.66 57 -1 57 C-1.174 37.982 -0.633 19.005 0 0 Z " fill="#5A8782" transform="translate(60,56)"/>
<path d="M0 0 C0.33 0 0.66 0 1 0 C1.01 0.56 1.021 1.12 1.031 1.697 C1.14 7.587 1.255 13.477 1.372 19.366 C1.415 21.557 1.457 23.748 1.497 25.939 C1.929 49.291 1.929 49.291 3 60 C0.971 57.971 -0.008 56.67 -1 54 C-0.682 52.33 -0.346 50.664 0 49 C0.082 47.313 0.118 45.623 0.114 43.934 C0.113 42.954 0.113 41.973 0.113 40.963 C0.108 39.917 0.103 38.871 0.098 37.793 C0.096 36.712 0.095 35.632 0.093 34.519 C0.088 31.075 0.075 27.631 0.062 24.188 C0.057 21.85 0.053 19.512 0.049 17.174 C0.038 11.449 0.021 5.725 0 0 Z " fill="#7EBCB4" transform="translate(450,16)"/>
<path d="M0 0 C0.33 0 0.66 0 1 0 C1.246 15.508 1.246 15.508 -1 20 C-1.66 20 -2.32 20 -3 20 C-3.33 14.39 -3.66 8.78 -4 3 C-3.67 3 -3.34 3 -3 3 C-2.67 5.31 -2.34 7.62 -2 10 C-1.34 6.7 -0.68 3.4 0 0 Z " fill="#41625E" transform="translate(85,50)"/>
<path d="M0 0 C2.707 1.354 2.751 2.575 3.727 5.402 C4.036 6.292 4.345 7.183 4.664 8.1 C4.981 9.036 5.298 9.973 5.625 10.938 C5.95 11.87 6.275 12.803 6.609 13.764 C9 20.71 9 20.71 9 23 C8.34 23 7.68 23 7 23 C5.02 17.72 3.04 12.44 1 7 C0.67 7 0.34 7 0 7 C0 4.69 0 2.38 0 0 Z " fill="#395552" transform="translate(429,62)"/>
<path d="M0 0 C0.33 0 0.66 0 1 0 C3.296 13.633 3.296 13.633 3 20 C0.971 17.971 -0.008 16.67 -1 14 C-0.713 12.325 -0.369 10.659 0 9 C0.096 5.998 0.059 3.002 0 0 Z " fill="#324C49" transform="translate(450,56)"/>
<path d="M0 0 C0.33 0 0.66 0 1 0 C1 3.63 1 7.26 1 11 C0.01 10.01 -0.98 9.02 -2 8 C-1.556 1.556 -1.556 1.556 0 0 Z " fill="#72ACA5" transform="translate(106,55)"/>
</svg>