<svg version="1.1" viewBox="0 0 472 123" xmlns="http://www.w3.org/2000/svg">
<path transform="translate(18,7)" d="m0 0c6-1.3 12.2-1.2 18.4-1.3 1.7-0.1 3.4-0.3 5.2-0.4 5-0.1 8.7-0.1 13.4 1.7 2.9 5.5 2.8 10.9 3 17 0.4 2.6 0.8 5.1 1.2 7.8 0.3 2.4 0.6 4.8 1 7.3 0.3 2.4 0.7 4.9 1 7.4 0.3 1.8 0.5 3.6 0.8 5.5 0.2-1.3 0.5-2.5 0.7-3.8 1.1-5.7 2.2-11.3 3.2-17l1.2-6c0.3-1.9 0.7-3.8 1.1-5.7 0.1-0.9 0.1-0.9 1-5.3 0.8-4.2 0.8-4.2 1.8-7.2 3.5-0.3 3.5-0.3 8.2-0.3h5c0.9 0 0.9 0 5.4 0.1 0.8 0 0.8 0 5.3 0.1 4.4 0 8.7 0 13.1 0.1 1.4 14.4 2.9 28.9 4.3 43.3 0.5 4.9 0.9 9.8 1.4 14.7 0.7 7.1 1.4 14.1 2.1 21.2 0.2 2.2 0.4 4.4 0.7 6.7 0.1 1 0.1 1 0.6 6.2 0.2 1.8 0.3 3.6 0.5 5.4 0.4 4.5 0.4 4.5 0.4 9.5h-32c-0.7-16.2-1.3-32.3-2-49-1.8 7.9-3.3 14.3-3.9 22.1-2.9 25.3-2.9 25.3-12 29.8-7.4 0.4-12.3-0.1-19.1-2.9-2.8-6.8-2.9-9.9-3-17-0.7-4.7-1.4-9.3-2.1-14-0.4-2.2-0.7-4.5-1-6.8-0.9-5.2-0.9-5.2-1.9-6.2-0.1 2.5-0.3 5-0.4 7.6-0.2 3.3-0.4 6.6-0.5 9.9-0.1 1.7-0.2 3.3-0.3 5l-0.3 4.8c0 1.5-0.1 3-0.2 4.5-0.3 4.1-0.8 8.1-1.3 12.2h-32c0-6.5 0.2-12.2 1-18.6 0.1-0.9 0.1-0.9 0.7-5.6 0.2-2 0.4-4 0.7-6.1 0.2-2.1 0.5-4.1 0.7-6.3 0.5-4.3 1-8.7 1.5-13l2.4-20.1c0.5-4.2 1-8.4 1.5-12.7 0.2-2 0.5-4 0.7-6 0.2-1.9 0.4-3.8 0.7-5.7 0.2-1.6 0.4-3.2 0.6-4.9 0.5-4 0.5-4 1.5-8zm179 0c8.7-0 17.3 0 26-0.1h8.9 12.7 7.7c5.7 0.1 5.7 0.1 6.7 1.1 0.1 4.1 0.1 8.3 0.1 12.4v7c-0.1 5.6-0.1 5.6-1.1 7.6-5.3 0.3-10.7 0.1-16 0v7.1c0 8.8 0 17.5 0.1 26.2v11.3 16.2 5.2c0 11.9 0 11.9-1.1 13h-29v-79h-15v-28z" fill="#E44700"/>
<path transform="translate(380,7)" d="m0 0c4.7-0.3 9.4-0.6 14.2-0.8 2.6-0.1 5.3-0.2 8-0.4 6.8 1.2 6.8 1.2 10 6.7 0.6 2.1 1.2 4.3 1.8 6.5 0.6 1.6 1.2 3.1 1.8 4.8 0.5 1.4 1 2.9 1.5 4.5 0.5 1.4 1.1 2.9 1.6 4.4 0.6 1.8 1.3 3.7 1.9 5.5 2.1 5.9 4.1 11.8 6.2 17.8v-49h29v107h-29c-4.9-9.3-6.9-15.1-9-25-1.5-4.4-3-8.7-4.6-13.1-1.1-3.2-2.2-6.5-3.4-9.9-0.3 15.8-0.7 31.7-1 48-4.6 0-9.2 0-13.9 0.1h-7.9c-6.2-0.1-6.2-0.1-7.2-1.1-0.1-3.3-0.1-6.6-0.1-9.8v-6.5-7-7.1-22.7c0-5.1 0-10.2 0.1-15.3v-37.6zm48 51 1 3zm-20 3 1 2z" fill="#E94900"/>
<path transform="translate(188,20)" d="m0 0c13.2 23.1 13.8 49.9 3.8 74.3-9.8 16.3-20.9 21.1-39 21-13.9-0.8-22.9-9.1-29.2-21.1-10.2-22.2-10.5-50.9 2.4-72.2 16.5-20.6 44.3-23.6 62-2zm-38 20c-2.4 6.7-2.3 13.3-2.4 20.3 0 2.1 0 4.3-0.1 6.4 0.6 8.3 1.7 15.2 8.5 20.3 5-1 5-1 9-6 4.2-14.6 4.9-30.1-2-44-6-6-8-2.9-13 3z" fill="#ED4A00"/>
<path transform="translate(365.75,21.25)" d="m0 0c13.2 23.3 14 52.1 1.5 76-11 16-22.7 18.8-41.3 17.8-17.5-4.6-24.9-18.9-30-35-4.1-22.7-2.6-46.9 13-65 18.2-14.5 42.8-13.4 56.8 6.2zm-37.8 17.8c-2.8 7.2-3.4 13.7-3.3 21.4v5.9c0.6 9.1 1.8 14.1 8.3 20.7 7.2-1.2 7.4-1.7 10-8 3.4-13.3 5.6-34.5-5-45-5 0-5 0-10 5z" fill="#EF4B00"/>
<path transform="translate(211 7.9023)" d="m0 0h4 12.6 8.5c6.9 0.1 13.9 0.1 20.9 0.1v25h-16v79h-28v-79h-16c0-4-0.1-8-0.1-11.9v-6.8c0.2-9.6 5.4-6.4 14.1-6.4z" fill="#FE4F00"/>
<path transform="translate(260,7)" d="m0 0h29v107h-29v-107z" fill="#F24B00"/>
</svg>