<svg version="1.1" viewBox="0 0 1946 662" xmlns="http://www.w3.org/2000/svg">
<path transform="translate(431,284)" d="m0 0c7 7 12.8 14.9 18.7 22.8 3.8 4.8 7.7 9.4 11.7 14.1 3.5 4.2 6.8 8.5 10.1 12.9 2.5 3.2 5.1 6.3 7.8 9.4 4.3 5 8.3 10.1 12.2 15.3 4.8 6.3 9.7 12.4 14.8 18.3 3.7 4.4 7.2 8.9 10.7 13.5 3.3 4.1 6.7 8.2 10.1 12.3 4.1 5 8.2 10.1 12.2 15.3 6.1 7.9 12.4 15.6 18.8 23.2 4.1 4.9 8 9.9 11.9 14.9 3 3.7 6 7.3 9 11l12 15c1.3 1.6 2.6 3.3 4 5 0.4 5.5 0.5 10.7 0.5 16.2v5c0 5.5 0 11-0.1 16.4v11.4 24c-0.1 10.2-0.1 20.4-0.1 30.7 0 9.7 0 19.5-0.1 29.2v5.7 15.8 4.7c-0.1 10.8-0.1 10.8-1.2 11.9-7.5 0.1-15 0.1-22.5 0.1h-15.1-16.7-17.4-57.5-39.6-104.8c-35.6 0-71.1 0-106.7-0.1h-209.7c-0.6-35.2-1-70.4-1.3-105.6-0.1-12-0.2-23.9-0.4-35.9-0.3-17.2-0.4-34.4-0.5-51.6-0.2-5.4-0.3-10.7-0.4-16.3v-15c-0.1-4.4-0.1-8.8-0.2-13.3 2.8-10.3 2.8-10.3 13.9-15.1 4-0.7 7.9-1.5 11.9-2.2 9.4-2.7 18.7-5.5 27.9-8.6 11.6-3.7 23.2-7 34.9-10.3 14.2-4 28.3-8.3 42.3-12.9 10.9-3.5 21.9-6.6 32.9-9.8 8.7-2.6 17.4-5.2 26.1-7.9 4.3-1.3 8.7-2.6 13-3.9 7.6-2.2 15-4.5 22.5-6.8 11.7-3.7 23.3-7.1 35-10.5 10.3-3 20.6-6.1 30.8-9.3 7.3-2.2 14.5-4.4 21.8-6.6 10.7-3.2 21.4-6.4 32.2-9.7 4.5-1.4 9-2.7 13.5-4l29.1-8.7c5-1.5 10.1-3 15.1-4.5 3.3-1 6.5-2 9.8-3 11.6-3.6 11.6-3.6 17.1-2.5z" fill="#F05922"/>
<path transform="translate(4,4)" d="m0 0h591v337c-5.3-1.3-9.4-3.8-14.1-6.4l-6-3.3c-1.9-1.1-3.9-2.2-5.9-3.3-1.7-0.9-3.4-1.9-5.1-2.8-6-3.3-11.9-6.5-17.5-10.3-3.9-2.6-7.6-4.5-11.7-6.5-8.4-4.1-16.2-8.8-24.2-13.6-6.4-4-13-7.5-19.7-11-8.2-4.2-16.2-8.6-24-13.4-6.8-4.3-13.8-8-21-11.5-5.9-2.9-11.3-6.4-16.8-9.9-3.7-2-7.3-4-11-6l-10.5-6c-7.1-4.1-14.3-8.1-21.5-12-4.1-2.2-8.1-4.5-12.2-6.8-4.4-2.6-8.9-5-13.4-7.4-5.9-3.3-11.8-6.6-17.5-10.1-7-4.4-14.1-8.3-21.5-12-5.6-2.8-11-5.9-16.3-9.1-9.5-5.7-19-11-28.8-16.1-6.9-3.7-13.6-7.6-20.3-11.5-23.7-13.9-23.7-13.9-30-16v2c-0.5 0.5-0.5 0.5-3.3 2.9-6.9 6.1-13 12.9-18.9 19.9-2.8 3.2-2.8 3.2-6.6 6.5-6 5.3-11.2 11.3-16.3 17.5-2.9 3.2-2.9 3.2-6.3 6.1-4 3.4-7.2 7.2-10.6 11.1l-10 10c-2 2.3-4 4.7-6 7l-20 20c-1.1 1.3-2.1 2.5-3.2 3.8-2.8 3.2-2.8 3.2-4.8 3.2-0.7 1.3-1.3 2.6-2 4-2.2 2.3-4.4 4.5-6.7 6.8-3.7 3.6-7.3 7.2-10.8 11.2-4.9 5.6-10.2 10.8-15.6 16-3.8 3.9-7.3 7.9-10.9 12l-9 9c-5 5-5 5-8 9h-2c-0.7 1.3-1.3 2.6-2 4h-2c-0.7 1.3-1.3 2.6-2 4-3.3 3.4-6.6 6.7-10 10-1.2 1.4-2.3 2.7-3.5 4.1-2.5 2.9-2.5 2.9-4.5 2.9-0.3 0.7-0.3 0.7-2 4-2.5 2.6-5 5.1-7.5 7.6-7.3 7.1-7.3 7.1-9.5 10.4h-2c-0.3 0.7-0.3 0.7-2 4-1.3 1-2.6 2-4 3v-364z" fill="#FBAF3F"/>
<path transform="translate(1826,351)" d="m0 0c2.4 3 4.7 6 7 9 1.6-2 3.3-4 4.9-6.1 16.1-18.8 39.8-20.3 63.1-17.3 20 4.3 32.2 15.3 38.8 34.5 2.4 9.7 2.3 19.3 2.3 29.2v5 16.2 11.3 23.5 30.3 23.3 11.1 15.6 4.7c0 10.6 0 10.6-1.1 11.7-5.8 0.1-11.7 0.1-17.5 0.1h-5c-12.4 0-12.4 0-13.5-1.1-0.1-4.8-0.1-9.7-0.1-14.5 0-1.5 0-3.1-0.1-4.6v-10.1-15.8c-0.1-15.1-0.1-30.1-0.1-45.1 0-9.2-0.1-18.4-0.1-27.6v-10.5c0-4.9 0-9.8-0.1-14.7 0-1.5 0-2.9 0.1-4.4-0.2-13.5-2.3-24.5-12.6-33.7-12.2-6.6-27.9-6.3-40 0-15.2 11.2-15.4 30.1-15.4 47.6 0 1.5-0.1 2.9-0.1 4.4v14.4c0 3.3 0 6.7-0.1 10 0 8.7 0 17.5-0.1 26.2 0 9 0 17.9-0.1 26.9-0.1 17.5-0.1 35-0.2 52.5h-36c0-2.3 0-2.3-0.1-13.9 0-15.3-0.1-30.5-0.2-45.7 0-9.2-0.1-18.5-0.1-27.7-0.1-8.9-0.1-17.8-0.2-26.7v-10.2c0-4.8 0-9.5-0.1-14.3v-4.2c-0.1-15-1.6-26.6-11.3-38.3-14.9-7.5-28.5-6.4-42.9 1.8-12.7 9.9-13.2 26.9-13.3 41.7v4.5c0 3.2 0 6.4-0.1 9.6v15.1c-0.1 12.5-0.2 25.1-0.2 37.6-0.1 10.6-0.1 21.2-0.2 31.8 0 4.9 0 9.9-0.1 14.9v9.1 4.3c-0.1 9.5-0.1 9.5-1.2 10.6-5.8 0.1-11.7 0.1-17.5 0.1h-5c-12.4 0-12.4 0-13.5-1.1-0.1-2.7-0.1-5.4-0.2-8.2v-5.4-6-6.2c-0.1-6.9-0.1-13.8-0.1-20.7 0-4.7-0.1-9.5-0.1-14.2 0-12.6-0.1-25.1-0.1-37.6-0.1-12.8-0.1-25.6-0.2-38.4l-0.3-75.3c6.1 0 12.3 0 18.4-0.1h5.4 5 4.7c3.5 0.1 3.5 0.1 4.5 1.1 0.2 3.4 0.4 6.7 0.6 10.1 0 1.8 0.1 3.7 0.2 5.6 0.1 1.4 0.1 2.8 0.2 4.3 1-1.3 2-2.7 3.1-4.1 22.2-27.8 64.3-28.1 90.9-5.9z" fill="#77787C"/>
<path transform="translate(1011,358)" d="m0 0c10.3 15.3 14 32 16 50l0.6 4.8c0.6 8.8 0.5 17.5 0.5 26.3v5.5 5.2 4.7c-0.1 3.5-0.1 3.5-1.1 4.5-3.6 0.1-7.3 0.1-10.9 0.1h-7.2-7.8-7.9-21c-7.1 0-14.2 0-21.3-0.1h-41.9c0.3 4.1 0.6 8.3 0.9 12.4 0.2 2.3 0.3 4.6 0.5 6.9 1.5 16.9 4.5 35.7 20.7 44.5 13.7 6.2 29.7 4.7 42.1-3.7 8-8.8 11.4-18.5 12.8-30.1 1-2 1-2 4.6-2.2h4.8 5.1 5.5 5.5c13.4 0.1 13.4 0.1 14.5 1.2 1.4 22.9-7.9 44.8-27 58-15.7 8.5-30.7 11.2-48.5 11.2-1.4 0.1-2.7 0.1-4.1 0.1-25.2 0.1-47.7-8-61.6-29.9-22.9-42.3-21.8-113.8-2.8-157.4 3.5-5.6 3.5-5.6 7-10 0.9-1.2 1.7-2.4 2.6-3.6 29.2-29.7 91.5-29.9 119.4 1.6zm-94.1 23.4c-6.5 15.9-8 32.6-7.9 49.6 11.4 0.1 22.7 0.2 34.1 0.3 3.9 0 7.8 0 11.6 0.1 5.6 0 11.1 0.1 16.7 0.1 1.7 0 3.5 0 5.3 0.1 4.1 0 8.2-0.3 12.3-0.6 3.8-19-0.7-47-15-61-8.3-4.7-14.8-6.2-24.2-6.2-1.7-0.1-3.3-0.1-4.9-0.1-12.8 0.8-21.4 7-28 17.7z" fill="#77787C"/>
<path transform="translate(1514.5 339.81)" d="m0 0h5c4.2 0 8.3 0.1 12.5 0.2 2.3 4.6 1.2 11.2 1.2 16.4v4.5 9.9c0 5.1 0 10.3 0.1 15.5 0 14.8 0.1 29.6 0.1 44.3 0 9 0.1 18.1 0.1 27.1v10.3c0 4.8 0.1 9.6 0.1 14.5v4.2c0.1 15.4 3.3 30 17.4 38.3 15.9 5 30.8 4 43.8-7.3 10.8-12.5 12.7-26.1 12.7-42.2 0-1.4 0-2.9 0.1-4.4v-14.4-10c0.1-8.7 0.1-17.5 0.1-26.2 0-14.1 0.1-28.1 0.1-42.2v-14.7c0-3 0.1-6 0.1-9v-7.9c0.1-5.7 0.1-5.7 1.1-6.7 5.8-0.1 11.7-0.2 17.5-0.1h5c12.4 0 12.4 0 13.5 1.1 0.1 2.7 0.1 5.4 0.2 8.2v5.4 6 6.2c0.1 6.9 0.1 13.8 0.1 20.7 0 4.7 0.1 9.5 0.1 14.2 0 12.6 0.1 25.1 0.1 37.6 0.1 12.8 0.1 25.6 0.2 38.4l0.3 75.3h-18.4c-1.8 0.1-3.6 0.1-5.4 0.1h-5-4.7c-3.5-0.1-3.5-0.1-4.5-1.1-0.2-3.5-0.4-7.1-0.6-10.6 0-1.9-0.1-3.9-0.2-5.9-0.1-1.5-0.1-3-0.2-4.5-1.7 2-3.4 3.9-5.2 6-17.4 18.8-40.7 22.9-65.3 19.3-19.1-4.6-31.5-15.6-37.8-33.9-2.7-10-2.8-19.4-2.8-29.6v-5-16.2-11.3-23.6-30.3-23.2-11.2-15.6-4.7c0-15.4 4.7-11.9 18.6-11.9z" fill="#77787C"/>
<path transform="translate(728.7 248.85)" d="m0 0h5.3 17.6 12.2 25.5c10.9 0 21.9-0.1 32.8-0.1h25.1 12.1 16.9 5.1c11.5 0 11.5 0 13.7 2.2 0.2 5.6 0.3 11.1 0.3 16.6v4.7c0 3.9-0.2 7.8-0.3 11.7-4.8 2.5-12.1 1.2-17.5 1.1h-4.7-14.9-10.1c-8.3 0-16.5 0-24.8-0.1v4.2c0 33.4 0 66.8 0.1 100.2v48.5 46.7 17.9 24.9 7.6 6.8 6c-0.1 4.2-0.1 4.2-1.1 5.2-2.9 0.1-5.7 0.2-8.6 0.2h-5.3-5.6-5.6-5.3-4.9c-3.7-0.2-3.7-0.2-4.7-1.2-0.1-3.4-0.1-6.8-0.1-10.2v-6.8-7.6-7.9-26-17.9-47.4c0-16.1 0-32.2 0.1-48.3v-94.9c-2.1 0.1-4.2 0.1-6.4 0.1h-23.4-10.2-14.6c-0.7 0-0.7 0-4.6 0.1-10.7 0-10.7 0-11.8-1.2-0.1-5.6-0.1-11.3-0.1-17v-4.8c0-16.2 3-13.3 17.8-13.3z" fill="#77787C"/>
<path transform="translate(1342,353)" d="m0 0c10.5 14.7 12.5 32.3 12.3 49.9v5 16 11.2c0 9.7-0.1 19.5-0.1 29.3 0 10 0 19.9-0.1 29.9 0 19.6 0 39.1-0.1 58.7h-36c0-4.7 0-9.3-0.1-14.2 0-15.4-0.1-30.9-0.2-46.3 0-9.4-0.1-18.7-0.1-28.1-0.1-9-0.1-18.1-0.2-27.1v-10.4c0-4.8 0-9.6-0.1-14.4v-4.4c-0.1-14.6-1.6-26.3-13.3-36.1-15.7-7.7-33.3-7.3-48.1 2.3-3.7 3.6-5.8 6-7.9 10.7-0.7 1.4-1.4 2.9-2.1 4.4-6.1 17.8-5.4 36.2-5.4 54.8v9.4c-0.1 8.1-0.1 16.3-0.1 24.4 0 13.1-0.1 26.2-0.2 39.3v13.7 8.3c0 2.4-0.1 4.9-0.1 7.4-0.1 5.3-0.1 5.3-1.1 6.3-5.9 0.1-11.7 0.1-17.6 0.1-1.6 0-3.3 0-5-0.1h-12.4v-6.6l-0.3-62.1c0-10.7-0.1-21.3-0.1-32-0.1-10.3-0.1-20.6-0.2-30.9v-11.7c-0.1-21.1-0.5-42-2.1-63.1-0.3-5.6-0.3-5.6 0.7-6.6 2.7-0.1 5.4-0.1 8.2-0.1h5 5.3 5.3 5 4.7c3.5 0.1 3.5 0.1 4.5 1.1 0.2 3.9 0.4 7.7 0.6 11.6 0 2.1 0.1 4.2 0.2 6.4 0.1 1.7 0.1 3.3 0.2 5 1.2-1.7 2.3-3.3 3.5-5.1 21.7-28.6 72.8-34 97.5-5.9z" fill="#77787C"/>
<path transform="translate(1174,336)" d="m0 0v37c-3-0.2-5.9-0.4-9-0.6-18.6-0.9-35.2 0.6-47.1 16.8-7.7 12.7-9.1 25-9.2 39.6v4.1c-0.1 4.3-0.1 8.7-0.1 13.1v9.2c-0.1 8-0.1 16-0.1 24-0.1 12.9-0.2 25.7-0.2 38.6-0.1 4.5-0.1 9-0.1 13.5v8.2c0 1.2 0 1.2-0.1 7.3-0.1 5.2-0.1 5.2-1.1 6.2-5.8 0.1-11.7 0.1-17.5 0.1h-5c-12.4 0-12.4 0-13.5-1.1-0.1-2.7-0.1-5.4-0.1-8.1v-5.4-6-6.2-20.5-14.2-29.8-38.2-29.3-14.1-19.7-6-5.4-4.7c0.1-3.4 0.1-3.4 1.1-4.4 5.8-0.1 11.7-0.1 17.5-0.1h5c12.4 0 12.4 0 13.5 1.1 0.2 4.4 0.4 8.7 0.6 13.1 0 2.4 0.1 4.8 0.2 7.2 0.1 1.9 0.1 3.8 0.2 5.7 0.9-1.8 1.9-3.5 2.9-5.4 14.9-24 36.1-26.1 62.1-25.6z" fill="#77787C"/>
<path transform="translate(1406,340)" d="m0 0c35 0 35 0 36 1 0.1 2.7 0.1 5.4 0.1 8.1v5.4 6 6.2 20.5 14.2 29.8 38.2 29.3 14.1 19.7 6 5.4 4.7c-0.1 3.4-0.1 3.4-1.1 4.4h-35v-213z" fill="#77787C"/>
<path transform="translate(1412.6 248.87)" d="m0 0h5.3 5.6 5.6 5.3 4.9c3.7 0.1 3.7 0.1 4.7 1.1 0.1 2.8 0.1 5.5 0.1 8.2v5 5.3 5.3 5.1 4.6c-0.1 3.5-0.1 3.5-1.1 4.5-2.9 0.1-5.7 0.2-8.6 0.2h-5.3-5.6-5.6-5.3-4.9c-3.7-0.2-3.7-0.2-4.7-1.2-0.1-2.7-0.1-5.4-0.1-8.1v-5.1-5.3-5.3-5-4.7c0.2-6.5 3.9-4.6 9.7-4.6z" fill="#77787C"/>
</svg>